<svg width="262" height="256" viewBox="0 0 262 256" fill="none" xmlns="http://www.w3.org/2000/svg">
<ellipse cx="131" cy="128" rx="131" ry="128" fill="#D9D9D9"/>
<path d="M79.6864 72.1551C79.7648 73.2965 148.432 59.3021 191.418 44.5649L217.832 35.0977C201.815 54.623 175.757 80.2699 175.757 80.2699L137.422 115.704C137.096 116.451 136.749 116.956 138.123 116.786C157.584 106.675 185.942 88.14 190.362 84.412C190.557 84.2047 190.753 83.9961 190.951 83.7863C190.957 83.8683 190.753 84.0822 190.362 84.412C175.377 100.341 166.673 108.886 150.98 121.655L121.761 146.27C121.459 146.89 121.545 147.078 122.229 147.082C150.006 143.205 165.591 141.045 193.054 136.803C154.592 174.434 127.24 193.407 75.2452 226.065C75.2452 226.065 110.353 190.788 118.722 180.623C78.8842 186.803 54.0521 191.081 51.1692 185.221C47.8661 176.923 50.347 171.131 63.0903 158.442C88.9513 132.742 104.032 118.683 128.54 92.1716L61.6878 105.696L79.6864 72.1551Z" fill="#D9D9D9"/>
<path d="M79.6864 72.1551C79.7648 73.2965 148.432 59.3021 191.418 44.5649L217.832 35.0977C201.815 54.623 175.757 80.2699 175.757 80.2699L137.422 115.704C137.096 116.451 136.749 116.956 138.123 116.786C157.584 106.675 185.942 88.14 190.362 84.412C190.557 84.2047 190.753 83.9961 190.951 83.7863C190.957 83.8683 190.753 84.0822 190.362 84.412C175.377 100.341 166.673 108.886 150.98 121.655L121.761 146.27C121.459 146.89 121.545 147.078 122.229 147.082C150.006 143.205 165.591 141.045 193.054 136.803C154.592 174.434 127.24 193.407 75.2452 226.065C75.2452 226.065 110.353 190.788 118.722 180.623C78.8842 186.803 54.0521 191.081 51.1692 185.221C47.8661 176.923 50.347 171.131 63.0903 158.442C88.9513 132.742 104.032 118.683 128.54 92.1716L61.6878 105.696L79.6864 72.1551Z" fill="white" fill-opacity="0.2"/>
<path d="M79.6864 72.1551C79.7648 73.2965 148.432 59.3021 191.418 44.5649L217.832 35.0977C201.815 54.623 175.757 80.2699 175.757 80.2699L137.422 115.704C137.096 116.451 136.749 116.956 138.123 116.786C157.584 106.675 185.942 88.14 190.362 84.412C190.557 84.2047 190.753 83.9961 190.951 83.7863C190.957 83.8683 190.753 84.0822 190.362 84.412C175.377 100.341 166.673 108.886 150.98 121.655L121.761 146.27C121.459 146.89 121.545 147.078 122.229 147.082C150.006 143.205 165.591 141.045 193.054 136.803C154.592 174.434 127.24 193.407 75.2452 226.065C75.2452 226.065 110.353 190.788 118.722 180.623C78.8842 186.803 54.0521 191.081 51.1692 185.221C47.8661 176.923 50.347 171.131 63.0903 158.442C88.9513 132.742 104.032 118.683 128.54 92.1716L61.6878 105.696L79.6864 72.1551Z" fill="black"/>
<path d="M79.6864 72.1551C79.7648 73.2965 148.432 59.3021 191.418 44.5649L217.832 35.0977C201.815 54.623 175.757 80.2699 175.757 80.2699L137.422 115.704C137.096 116.451 136.749 116.956 138.123 116.786C159.306 105.781 191.029 84.7946 190.951 83.7863C175.603 100.119 166.877 108.72 150.98 121.655L121.761 146.27C121.459 146.89 121.545 147.078 122.229 147.082C150.006 143.205 165.591 141.045 193.054 136.803C154.592 174.434 127.24 193.407 75.2452 226.065C75.2452 226.065 110.353 190.788 118.722 180.623C78.8842 186.803 54.0521 191.081 51.1692 185.221C47.8661 176.923 50.347 171.131 63.0903 158.442C88.9513 132.742 104.032 118.683 128.54 92.1716C102.432 97.4533 61.6878 105.696 61.6878 105.696L79.6864 72.1551Z" stroke="black"/>
<path d="M31.1139 154.193C24.1539 166.085 21.6175 172.445 17.5752 183.677C26.0963 165.816 33.3718 156.186 49.6219 139.507C40.2234 148.59 37.3406 151.452 31.1139 154.193Z" fill="white" stroke="black"/>
<path d="M78.7394 168.378C67.6765 173.52 61.7456 176.957 52.1819 184.137C53.3492 190.772 71.4348 188.681 119.888 179.539C101.736 198.45 91.8112 208.817 75.4488 226.063C107.683 200.745 124.824 185.638 152.927 156.276C147.806 158.463 143.385 159.315 134.547 160.604C99.5096 164.21 86.4701 165.95 78.7394 168.378Z" fill="#3D3A2E" fill-opacity="0.97"/>
<path d="M79.1715 168.178C79.0266 168.245 78.8825 168.312 78.7394 168.378M78.7394 168.378C67.6765 173.52 61.7456 176.957 52.1819 184.137C53.3492 190.772 71.4348 188.681 119.888 179.539C101.736 198.45 91.8112 208.817 75.4488 226.063C107.683 200.745 124.824 185.638 152.927 156.276C147.806 158.463 143.385 159.315 134.547 160.604C99.5096 164.21 86.4701 165.95 78.7394 168.378Z" stroke="black"/>
<path d="M60.1335 141.671C70.8059 129.922 78.0451 124.163 92.8583 115.163C79.3616 125.468 72.7281 131.616 62.0035 143.024L73.6909 135.721C49.4713 161.9 37.1999 176.071 41.6674 191.172C43.5661 195.912 46.2938 197.642 54.7574 198.745C55.0411 199.161 54.9522 199.361 54.2899 199.557C38.8008 201.162 31.3446 200.835 29.2788 189.008C29.0729 177.888 36.3293 167.118 60.1335 141.671Z" fill="#747070" stroke="black"/>
<path d="M136.331 196.308C146.576 188.364 151.927 183.73 160.875 175.21C148.37 188.32 139.864 196.111 134.929 202.53C137.491 202.45 139.037 202.276 141.941 201.718C119.57 212.596 107.299 217.838 85.8416 225.792C117.622 208.541 133.164 199.796 135.162 194.685C135.345 195.564 135.565 195.952 136.331 196.308Z" fill="#777777" stroke="#552828"/>
<path d="M154.564 69.9895C133.045 75.9618 119.805 79.1182 95.1915 84.5961L63.4018 105.122C89.0526 99.7036 103.478 96.7885 129.319 91.8994L63.4018 158.982C92.8509 145.522 109.108 136.152 137.734 116.785C112.948 130.409 101.945 136.613 85.1403 146.268C122.568 111.673 143.129 92.3822 182.613 57.2764C174.923 62.2014 169.155 64.9766 154.564 69.9895Z" fill="#392525"/>
<path d="M80.6991 72.1535L95.1915 84.5961M95.1915 84.5961C119.805 79.1182 133.045 75.9618 154.564 69.9895C169.155 64.9766 174.923 62.2014 182.613 57.2764C143.129 92.3822 122.568 111.673 85.1403 146.268C101.945 136.613 112.948 130.409 137.734 116.785C109.108 136.152 92.8509 145.522 63.4018 158.982L129.319 91.8994C103.478 96.7885 89.0526 99.7036 63.4018 105.122M95.1915 84.5961L63.4018 105.122M62.9343 105.424L63.4018 105.122" stroke="black"/>
</svg>
